<svg xmlns="http://www.w3.org/2000/svg" viewBox="0 0 16 16"><path d="
M125.000000,193.000000 
	C83.360146,193.000000 42.220295,193.000000 1.040221,193.000000 
	C1.040221,129.068527 1.040221,65.137016 1.040221,1.102752 
	C64.889664,1.102752 128.779556,1.102752 192.834717,1.102752 
	C192.834717,64.999649 192.834717,128.999786 192.834717,193.000000 
	C170.470627,193.000000 147.985321,193.000000 125.000000,193.000000 
M119.658905,67.973251 
	C115.401237,65.710632 111.139763,63.455135 106.886551,61.184170 
	C85.618423,49.828259 64.380852,38.414577 43.064339,27.150261 
	C38.179615,24.569019 37.391613,25.193764 37.389359,30.840498 
	C37.370659,77.672874 37.372250,124.505257 37.406803,171.337616 
	C37.407944,172.882843 36.761581,174.752960 39.295177,176.093277 
	C85.450500,151.335983 131.905319,126.418053 178.360138,101.500107 
	C178.378998,100.872314 178.397858,100.244530 178.416718,99.616737 
	C159.028931,89.212471 139.641159,78.808212 119.658905,67.973251 
z"/>
<path fill="#000000" opacity="1.000000" stroke="none" 
	d="
M146.271362,93.617340 
	C150.136154,95.877060 154.269562,96.936211 158.526337,100.789284 
	C121.714653,120.537491 85.499794,139.965515 48.274254,159.935745 
	C48.274254,119.973190 48.274254,81.205742 48.274254,40.865704 
	C81.247566,58.629650 113.587898,76.052597 146.271362,93.617340 
z"/>
</svg>