<svg version="1.1" id="Layer_1" xmlns="http://www.w3.org/2000/svg" xmlns:xlink="http://www.w3.org/1999/xlink" x="0px" y="0px"
	 width="100%" viewBox="0 0 800 801" enable-background="new 0 0 800 801" xml:space="preserve">
<path fill="#000000" opacity="1.000000" stroke="none" 
	d="
M442.000000,802.000000 
	C294.666656,802.000000 147.833328,802.000000 1.000000,802.000000 
	C1.000000,535.000000 1.000000,268.000000 1.000000,1.000000 
	C267.666656,1.000000 534.333313,1.000000 801.000000,1.000000 
	C801.000000,268.000000 801.000000,535.000000 801.000000,802.000000 
	C681.500000,802.000000 562.000000,802.000000 442.000000,802.000000 
M77.615837,768.035156 
	C87.779175,762.827454 97.930977,757.597046 108.108360,752.416931 
	C126.753311,742.927063 145.422104,733.483948 164.064545,723.989136 
	C182.134369,714.785950 200.169495,705.514709 218.245728,696.324280 
	C236.891769,686.843933 255.583084,677.452759 274.228485,667.971252 
	C292.160309,658.852539 310.049133,649.649292 327.974335,640.517578 
	C347.333893,630.655212 366.722565,620.849915 386.082092,610.987488 
	C404.151337,601.782471 422.184021,592.505371 440.260559,583.314636 
	C458.906342,573.834656 477.600952,564.450623 496.245941,554.968994 
	C514.178162,545.849854 532.068420,536.648315 549.987610,527.503418 
	C568.625122,517.992004 587.274963,508.504608 605.919800,499.007507 
	C623.986755,489.804779 642.050232,480.595184 660.122620,471.403259 
	C680.062622,461.261475 700.002075,451.118530 719.958618,441.009338 
	C737.406189,432.171082 754.877075,423.379028 772.337708,414.566559 
	C772.283264,413.874664 772.228821,413.182739 772.174438,412.490814 
	C766.006775,408.984070 759.942383,405.278717 753.651794,402.008270 
	C735.801270,392.727814 717.869324,383.603668 699.948792,374.458405 
	C681.312439,364.947815 662.647339,355.493530 644.003418,345.997772 
	C625.934692,336.794952 607.886719,327.551422 589.811523,318.361359 
	C571.164001,308.880280 552.483276,299.464325 533.837891,289.978973 
	C515.190063,280.492493 496.574799,270.942047 477.932709,261.444275 
	C459.290314,251.946426 440.626526,242.490692 421.982971,232.995178 
	C403.913849,223.792221 385.858704,214.561844 367.797119,205.344055 
	C349.302216,195.905136 330.812744,186.455582 312.310242,177.031540 
	C294.100342,167.756516 275.874115,158.513458 257.660461,149.245804 
	C239.300552,139.903732 220.946686,130.549759 202.591217,121.199005 
	C183.517090,111.482140 164.469894,101.711975 145.364868,92.056244 
	C114.628014,76.521744 83.855202,61.058365 53.091770,45.576504 
	C49.894363,43.967388 46.657619,42.436428 43.188988,40.747402 
	C43.188988,289.234802 43.188988,537.013489 43.188988,785.604187 
	C54.770935,779.745178 65.885468,774.122559 77.615837,768.035156 
z"/>
<path fill="#FFFFFF" opacity="1.000000" stroke="none" 
	d="
M77.307922,768.267578 
	C65.885468,774.122559 54.770935,779.745178 43.188988,785.604187 
	C43.188988,537.013489 43.188988,289.234802 43.188988,40.747402 
	C46.657619,42.436428 49.894363,43.967388 53.091770,45.576504 
	C83.855202,61.058365 114.628014,76.521744 145.364868,92.056244 
	C164.469894,101.711975 183.517090,111.482140 202.591217,121.199005 
	C220.946686,130.549759 239.300552,139.903732 257.660461,149.245804 
	C275.874115,158.513458 294.100342,167.756516 312.310242,177.031540 
	C330.812744,186.455582 349.302216,195.905136 367.797119,205.344055 
	C385.858704,214.561844 403.913849,223.792221 421.982971,232.995178 
	C440.626526,242.490692 459.290314,251.946426 477.932709,261.444275 
	C496.574799,270.942047 515.190063,280.492493 533.837891,289.978973 
	C552.483276,299.464325 571.164001,308.880280 589.811523,318.361359 
	C607.886719,327.551422 625.934692,336.794952 644.003418,345.997772 
	C662.647339,355.493530 681.312439,364.947815 699.948792,374.458405 
	C717.869324,383.603668 735.801270,392.727814 753.651794,402.008270 
	C759.942383,405.278717 766.006775,408.984070 772.174438,412.490814 
	C772.228821,413.182739 772.283264,413.874664 772.337708,414.566559 
	C754.877075,423.379028 737.406189,432.171082 719.958618,441.009338 
	C700.002075,451.118530 680.062622,461.261475 660.122620,471.403259 
	C642.050232,480.595184 623.986755,489.804779 605.919800,499.007507 
	C587.274963,508.504608 568.625122,517.992004 549.987610,527.503418 
	C532.068420,536.648315 514.178162,545.849854 496.245941,554.968994 
	C477.600952,564.450623 458.906342,573.834656 440.260559,583.314636 
	C422.184021,592.505371 404.151337,601.782471 386.082092,610.987488 
	C366.722565,620.849915 347.333893,630.655212 327.974335,640.517578 
	C310.049133,649.649292 292.160309,658.852539 274.228485,667.971252 
	C255.583084,677.452759 236.891769,686.843933 218.245728,696.324280 
	C200.169495,705.514709 182.134369,714.785950 164.064545,723.989136 
	C145.422104,733.483948 126.753311,742.927063 108.108360,752.416931 
	C97.930977,757.597046 87.779175,762.827454 77.307922,768.267578 
M450.384186,301.035187 
	C439.507263,295.461182 428.636993,289.874146 417.751923,284.316101 
	C399.263977,274.876038 380.770142,265.447510 362.272400,256.026703 
	C344.065521,246.754074 325.848938,237.500504 307.639832,228.232224 
	C289.285187,218.889862 270.933960,209.540817 252.582245,200.192703 
	C233.512161,190.478668 214.456787,180.735596 195.370392,171.053711 
	C172.557495,159.481491 149.730026,147.937851 126.886078,136.427078 
	C115.146713,130.511749 103.357826,124.694702 91.210434,118.643509 
	C91.210434,315.085419 91.210434,510.924133 91.210434,707.180359 
	C92.090111,706.799500 92.656105,706.590576 93.189735,706.318237 
	C107.518112,699.005432 121.832542,691.665283 136.171371,684.373047 
	C154.814133,674.891968 173.488373,665.472839 192.125839,655.981445 
	C210.193100,646.780457 228.213928,637.488342 246.286514,628.297852 
	C264.927002,618.818604 283.622681,609.447876 302.262085,599.966370 
	C320.907715,590.481750 339.501434,580.895081 358.140228,571.396851 
	C376.776001,561.900269 395.449585,552.478027 414.087769,542.986206 
	C432.154266,533.785461 450.182251,524.509033 468.254059,515.318848 
	C486.895355,505.839111 505.582947,496.450470 524.224731,486.971710 
	C542.153137,477.855652 560.034729,468.647552 577.962708,459.530762 
	C596.748413,449.977875 615.567078,440.489838 634.367249,430.965363 
	C645.552979,425.298553 656.730835,419.616241 668.518677,413.633057 
	C666.827026,412.169556 665.745728,410.832611 664.348389,410.091553 
	C656.255798,405.799561 648.104553,401.616821 639.943481,397.455322 
	C621.308167,387.952698 602.651550,378.491882 584.011353,368.998779 
	C565.946594,359.798676 547.908264,350.546509 529.828247,341.376434 
	C503.566315,328.056396 477.277405,314.789520 450.384186,301.035187 
z"/>
<path fill="#000000" opacity="1.000000" stroke="none" 
	d="
M450.692078,301.267578 
	C477.277405,314.789520 503.566315,328.056396 529.828247,341.376434 
	C547.908264,350.546509 565.946594,359.798676 584.011353,368.998779 
	C602.651550,378.491882 621.308167,387.952698 639.943481,397.455322 
	C648.104553,401.616821 656.255798,405.799561 664.348389,410.091553 
	C665.745728,410.832611 666.827026,412.169556 668.518677,413.633057 
	C656.730835,419.616241 645.552979,425.298553 634.367249,430.965363 
	C615.567078,440.489838 596.748413,449.977875 577.962708,459.530762 
	C560.034729,468.647552 542.153137,477.855652 524.224731,486.971710 
	C505.582947,496.450470 486.895355,505.839111 468.254059,515.318848 
	C450.182251,524.509033 432.154266,533.785461 414.087769,542.986206 
	C395.449585,552.478027 376.776001,561.900269 358.140228,571.396851 
	C339.501434,580.895081 320.907715,590.481750 302.262085,599.966370 
	C283.622681,609.447876 264.927002,618.818604 246.286514,628.297852 
	C228.213928,637.488342 210.193100,646.780457 192.125839,655.981445 
	C173.488373,665.472839 154.814133,674.891968 136.171371,684.373047 
	C121.832542,691.665283 107.518112,699.005432 93.189735,706.318237 
	C92.656105,706.590576 92.090111,706.799500 91.210434,707.180359 
	C91.210434,510.924133 91.210434,315.085419 91.210434,118.643509 
	C103.357826,124.694702 115.146713,130.511749 126.886078,136.427078 
	C149.730026,147.937851 172.557495,159.481491 195.370392,171.053711 
	C214.456787,180.735596 233.512161,190.478668 252.582245,200.192703 
	C270.933960,209.540817 289.285187,218.889862 307.639832,228.232224 
	C325.848938,237.500504 344.065521,246.754074 362.272400,256.026703 
	C380.770142,265.447510 399.263977,274.876038 417.751923,284.316101 
	C428.636993,289.874146 439.507263,295.461182 450.692078,301.267578 
z"/>
</svg>